<?xml version="1.0" encoding="UTF-8"?><svg id="_レイヤー_2" xmlns="http://www.w3.org/2000/svg" viewBox="0 0 2752.26 159.9"><defs><style>.cls-1{fill:#fff;}</style></defs><g id="A"><g><path class="cls-1" d="M52.13,159.69c-11.12,0-20.4-2.27-28.23-6.18-.82-.41-1.24-.62-1.85-.62-.82,0-1.44,.62-2.06,1.44-2.06,2.68-5.56,4.12-9.06,4.12-5.56,0-10.92-3.5-10.92-10.1v-.82c.21-3.5,.41-7.83,.41-12.16,0-5.36-.21-11.13-.41-15.45v-.41c0-6.8,5.56-9.89,11.13-9.89s10.92,3.3,10.92,9.68v1.65c0,11.75,17.52,17.31,29.67,17.31,21.02,0,28.43-13.39,28.43-22.67,0-8.24-4.94-17.1-15.87-23.28-9.06-5.15-20.61-11.54-31.52-16.48C14.63,67.58,6.39,52.95,6.39,38.74,6.39,18.96,22.67,0,50.89,0c8.04,0,15.87,1.65,22.87,4.94,.41,.21,.82,.21,1.44,.21s1.44-.21,1.85-.62c2.06-2.27,5.56-3.3,8.86-3.3,5.56,0,11.13,2.89,11.13,8.66v.62c-.21,3.91-.41,7.83-.41,11.95,0,4.74,.21,9.27,.41,12.98,.41,7.83-7.42,9.89-11.13,9.89-5.36,0-10.92-3.09-10.92-9.07v-.82c0-.82,.21-1.65,.21-2.27,0-5.97-9.48-12.98-24.52-12.98-13.6,0-21.84,8.45-21.84,17.93,0,6.8,4.12,13.8,13.39,18.75,8.65,4.53,22.67,10.92,32.35,16.07,20.61,11.13,29.26,26.99,29.26,42.03,0,23.49-21.22,44.71-51.72,44.71Z"/><path class="cls-1" d="M154.79,22.46c-17.72,0-18.54,.21-21.22,9.27-.62,1.85-1.03,4.12-1.85,6.59-1.65,5.77-6.39,8.45-10.92,8.45-5.56,0-11.13-3.91-11.13-10.72,0-1.65,.41-3.5,1.03-5.36,6.59-19.78,10.09-28.85,31.94-28.85h3.91c6.38,.21,16.9,.41,28.23,.41,13.8,0,28.64-.21,38.12-.41h2.06c16.28,0,24.93,4.74,29.26,16.69,1.24,3.3,3.5,8.04,4.95,12.36,.62,1.65,.82,3.3,.82,4.74,0,7.01-5.77,10.92-11.33,10.92-4.53,0-9.27-2.47-10.92-8.24-.62-2.27-1.24-4.33-1.85-6.18-3.09-9.48-5.15-9.69-16.07-9.69-16.9,0-17.1,0-17.1,4.53-.41,15.25-.62,37.3-.62,59.14,0,15.86,.21,31.53,.41,44.51,0,4.53,2.06,4.74,5.77,4.74,8.03,0,11.95,5.56,11.95,11.13s-3.91,10.92-11.33,10.92h-.82c-5.15-.21-10.92-.41-16.69-.41-6.8,0-13.4,.21-18.14,.41-6.8,.41-11.95-4.33-11.95-10.92,0-5.56,3.71-11.13,11.12-11.13h.82c3.71-.21,5.77,0,5.77-4.53,0-16.69,.41-41.83,.41-67.17,0-12.57,0-25.14-.41-36.68q0-4.53-14.22-4.53Z"/><path class="cls-1" d="M346.84,135.58h.41c8.24,0,12.16,5.36,12.16,10.92s-4.12,10.92-11.74,10.92h-.82c-5.36-.21-11.54-.41-17.52-.41-7.21,0-14.22,.21-19.16,.41-10.51,.62-12.36-7.21-12.36-10.92,0-5.36,3.91-10.92,11.54-10.92h.82l2.06,.21h.41c2.47,0,3.3-1.85,3.3-4.12,0-11.33,.21-22.67,.21-35.44,0-3.71-.21-3.91-2.27-7.01-13.19-19.99-31.11-46.98-42.04-63.26-1.44-2.06-3.3-2.68-5.56-2.68-3.71,0-12.98-.21-12.98-10.51,0-5.36,3.71-10.72,11.33-10.72h1.03c4.33,.21,9.89,.41,15.66,.41,7.01,0,14.22-.21,19.78-.41h.82c7.83,0,11.75,4.74,11.75,9.89s-4.33,10.72-12.57,11.33c-1.65,.21-2.88,.41-2.88,1.44,0,.41,.21,1.03,.82,1.85,26.58,41,27.82,42.65,29.05,42.65,3.5,0,29.88-43.07,29.88-44.51,0-1.03-1.24-1.44-2.68-1.44-8.04-.21-12.16-5.56-12.16-10.71s4.12-10.51,11.75-10.51h1.03c4.33,.21,9.48,.41,14.83,.41,6.59,0,13.19-.21,18.75-.41,2.68,0,12.57,.62,12.57,10.72,0,5.36-3.91,10.51-11.75,10.51h-.62c-2.47,.41-3.3,.41-4.74,2.68-10.92,16.9-30.08,45.95-41.63,62.23-2.47,3.3-2.68,4.12-2.68,8.24,0,9.27,.21,22.46,.21,35.44,0,2.68,.62,3.71,3.71,3.71h2.27Z"/><path class="cls-1" d="M455.09,157.01c-6.8-.21-14.42-.21-21.43-.21-5.15,0-9.89,0-13.8,.21h-.82c-7.62,0-11.33-5.36-11.33-10.72s3.91-10.71,11.33-10.71h1.24c4.33,0,4.53-.21,4.53-77.89V27.2c0-2.89-1.03-3.71-3.09-3.71h-.82c-.82,0-1.65,.21-2.68,.21-10.51,.62-12.36-8.86-12.36-10.92,0-5.36,3.91-10.72,11.33-10.72h1.03c4.33,.21,9.68,.41,15.45,.41,6.8,0,13.81-.21,19.37-.41h.41c8.24,0,12.16,5.36,12.16,10.92s-4.12,10.72-11.74,10.72h-.82c-.82,0-1.65-.21-2.47-.21-1.85,0-3.3,.62-3.5,3.5-.41,16.9-.82,48.42-.82,72.74,0,14.83,0,26.99,.41,30.91,.21,3.5,.62,5.36,5.36,5.77h29.88c12.16,0,16.49-5.77,21.64-19.99,1.85-4.94,6.18-7.21,10.72-7.21,5.97,0,12.36,4.33,12.36,11.33,0,2.68-.82,4.53-4.12,12.16-6.18,15.86-13.6,24.52-39.36,24.52-8.65,0-23.9-.21-27.2-.21h-.82Z"/><path class="cls-1" d="M587.43,136.61c32.97,0,34.2-.82,37.91-13.39,1.65-5.56,5.97-8.04,10.3-8.04,5.56,0,11.33,4.12,11.33,10.92,0,2.47-2.47,9.48-4.12,13.39-4.12,10.72-11.75,17.72-33.59,17.72-11.13,0-26.58-.21-41.01-.21-9.89,0-19.16,0-26.79,.41-4.53,.21-12.36-2.27-12.36-10.72,0-5.36,3.91-10.71,11.33-10.71h2.06c3.5,0,4.53-1.03,4.74-4.12,1.03-13.6,1.24-52.34,1.24-82.22V27.82c0-3.09-.82-4.74-5.36-4.74s-13.19-1.03-13.19-10.51c0-5.15,3.91-10.51,11.54-10.51h.82c5.56,.21,12.57,.41,20.19,.41,15.25,0,32.76-.41,43.69-.41,25.34,0,28.43,9.27,32.76,24.73,.41,1.65,.82,3.09,.82,4.53,0,7.01-5.77,10.72-11.33,10.72-4.94,0-9.89-2.88-10.92-9.07-1.44-7.42-3.91-10.3-14.22-10.3-8.66,0-24.52-.21-27.2-.21-4.12,0-5.36,.82-5.56,5.36-.21,9.27-.41,23.7-.62,37.5,0,2.06,1.03,2.68,2.88,2.68,6.59,0,17.1,0,20.61-.21,3.5-.21,4.12-3.09,4.12-6.59-.21-8.45,6.59-11.33,10.72-11.33,5.15,0,10.1,3.5,10.1,10.51v.82c-.21,4.74-.41,10.3-.41,15.66,0,6.39,.21,12.78,.41,17.31v.82c0,6.8-5.36,10.1-10.51,10.1s-10.3-3.5-10.3-10.1v-.82c0-.82,.21-1.85,.21-2.68,0-2.27-.62-4.33-4.33-4.33-3.91,0-14.22-.21-20.61-.21-2.47,0-3.09,1.03-3.09,3.3,0,18.75,0,35.85,.41,40.59,.21,5.36,1.44,5.77,17.31,5.77Z"/><path class="cls-1" d="M724.81,135.17h.82c2.88,0,3.91-1.03,3.91-4.33,.41-20.19,.62-41.42,.62-62.23,0-13.6,0-27.2-.41-39.97,0-2.88-.82-4.74-3.91-4.74h-.41l-3.09,.21c-9.89,.41-12.37-7.62-12.37-10.92,0-5.56,3.92-10.92,11.33-10.92h1.03c4.33,.21,10.51,.41,16.69,.41,7.62,0,15.66-.21,21.22-.41h.41c8.24,0,12.16,5.36,12.16,10.92s-3.91,10.92-11.74,10.92h-3.71c-3.3,0-4.33,1.65-4.33,4.53-.21,13.19-.41,26.99-.41,41.21,0,19.78,.21,40.39,.62,60.79,0,2.06,.62,4.53,3.3,4.53,1.03,0,2.68-.21,3.5-.21h.41c8.24,0,12.16,5.56,12.16,11.13s-3.91,10.72-11.75,10.72h-.82c-5.36-.21-11.54-.41-17.72-.41-7.62,0-14.84,.21-19.99,.41h-.82c-7.62,0-11.54-5.36-11.54-10.92s3.92-10.92,11.54-10.92h.82l2.47,.21Z"/><path class="cls-1" d="M835.17,157.84c-11.75,0-22.25-.62-34.2-.62-3.71,0-7.42,0-11.33,.21-7.83,.21-12.37-4.53-12.37-10.72,0-5.36,3.92-10.92,11.95-10.92,4.53,0,5.15-.62,5.15-15.25v-5.98c0-9.07-.21-19.99-.21-31.11s.21-22.25,.21-31.73v-5.77c0-7.62-.21-13.8-.21-17.72,0-3.3-.62-4.53-3.71-4.53h-1.03c-8.24,0-11.95-5.36-11.95-10.92s3.91-10.72,11.54-10.72h.82c4.53,.21,8.86,.41,12.98,.41,11.95,0,22.67-.82,34.61-.82,4.74,0,9.48,0,14.63,.41,47.6,3.09,73.77,35.44,73.77,77.27,0,78.09-68,78.51-90.66,78.51Zm-1.85-134.96c-14.01,0-14.84,.82-15.45,6.39-.41,4.74-.41,16.28-.41,29.67,0,27.2,.41,62.64,.41,70.68,0,5.77,2.27,7.01,18.54,7.01,23.28,0,65.53-.62,65.53-57.28,0-32.56-19.99-56.25-51.72-56.25,0,0-9.07-.21-16.9-.21Z"/><path class="cls-1" d="M989.97,136.61c32.97,0,34.2-.82,37.91-13.39,1.65-5.56,5.97-8.04,10.3-8.04,5.56,0,11.33,4.12,11.33,10.92,0,2.47-2.47,9.48-4.12,13.39-4.12,10.72-11.75,17.72-33.59,17.72-11.13,0-26.58-.21-41.01-.21-9.89,0-19.16,0-26.79,.41-4.53,.21-12.36-2.27-12.36-10.72,0-5.36,3.91-10.71,11.33-10.71h2.06c3.5,0,4.53-1.03,4.74-4.12,1.03-13.6,1.24-52.34,1.24-82.22V27.82c0-3.09-.82-4.74-5.36-4.74s-13.19-1.03-13.19-10.51c0-5.15,3.91-10.51,11.54-10.51h.82c5.56,.21,12.57,.41,20.19,.41,15.25,0,32.76-.41,43.69-.41,25.34,0,28.43,9.27,32.76,24.73,.41,1.65,.82,3.09,.82,4.53,0,7.01-5.77,10.72-11.33,10.72-4.94,0-9.89-2.88-10.92-9.07-1.44-7.42-3.91-10.3-14.22-10.3-8.66,0-24.52-.21-27.2-.21-4.12,0-5.36,.82-5.56,5.36-.21,9.27-.41,23.7-.62,37.5,0,2.06,1.03,2.68,2.88,2.68,6.59,0,17.1,0,20.61-.21,3.5-.21,4.12-3.09,4.12-6.59-.21-8.45,6.59-11.33,10.72-11.33,5.15,0,10.1,3.5,10.1,10.51v.82c-.21,4.74-.41,10.3-.41,15.66,0,6.39,.21,12.78,.41,17.31v.82c0,6.8-5.36,10.1-10.51,10.1s-10.3-3.5-10.3-10.1v-.82c0-.82,.21-1.85,.21-2.68,0-2.27-.62-4.33-4.33-4.33-3.91,0-14.22-.21-20.61-.21-2.47,0-3.09,1.03-3.09,3.3,0,18.75,0,35.85,.41,40.59,.21,5.36,1.44,5.77,17.31,5.77Z"/><path class="cls-1" d="M1160.84,136.61c1.65,0,3.09-1.44,3.09-3.3,0-.41-5.36-18.13-7.83-25.55-.41-1.65-1.65-2.88-3.3-2.88h-47.19c-2.68,.41-3.5,.82-4.33,3.5-2.06,7.01-7.01,24.11-7.01,24.11,0,2.27,2.47,4.12,4.74,4.12,7.01-.21,12.36,3.5,12.36,10.51,0,5.15-3.71,10.3-11.33,10.3h-.82c-5.15-.21-10.51-.41-15.86-.41-6.59,0-12.57,.21-17.52,.41h-.82c-7.62,0-11.33-5.36-11.33-10.51s3.71-10.3,11.13-10.3h1.03c3.3,0,5.36-3.5,6.18-6.18,11.95-37.3,31.11-91.08,39.35-115.39,3.09-9.27,9.89-13.6,16.9-13.6s14.84,4.94,17.93,14.22c10.92,31.32,31.11,88.19,41.21,114.77,.62,1.85,3.3,6.18,6.59,6.18,9.68-.21,12.16,7.01,12.16,10.51,0,5.15-3.91,10.3-11.54,10.3h-.82c-5.15-.21-10.51-.41-15.87-.41-6.59,0-12.57,.21-17.52,.41-6.18,.21-11.95-3.5-11.95-10.3,0-5.15,3.71-10.51,11.13-10.51h1.24Zm-14.63-51.51c1.24-.21,1.85-.41,1.85-1.03,0-1.44-14.22-44.92-15.86-50.07-1.24-3.71-2.27-5.36-3.3-5.36s-2.27,2.06-3.71,6.18c-4.74,12.78-15.66,49.04-15.66,49.04,0,.62,.41,.82,2.06,1.24h34.61Z"/><path class="cls-1" d="M1263.54,159.69c-11.12,0-20.4-2.27-28.23-6.18-.82-.41-1.24-.62-1.85-.62-.82,0-1.44,.62-2.06,1.44-2.06,2.68-5.56,4.12-9.06,4.12-5.56,0-10.92-3.5-10.92-10.1v-.82c.21-3.5,.41-7.83,.41-12.16,0-5.36-.21-11.13-.41-15.45v-.41c0-6.8,5.56-9.89,11.13-9.89s10.92,3.3,10.92,9.68v1.65c0,11.75,17.51,17.31,29.67,17.31,21.02,0,28.43-13.39,28.43-22.67,0-8.24-4.94-17.1-15.87-23.28-9.06-5.15-20.61-11.54-31.52-16.48-18.13-8.24-26.37-22.87-26.37-37.09,0-19.78,16.28-38.74,44.51-38.74,8.04,0,15.87,1.65,22.87,4.94,.41,.21,.82,.21,1.44,.21s1.44-.21,1.85-.62c2.06-2.27,5.56-3.3,8.86-3.3,5.56,0,11.13,2.89,11.13,8.66v.62c-.21,3.91-.41,7.83-.41,11.95,0,4.74,.21,9.27,.41,12.98,.41,7.83-7.42,9.89-11.13,9.89-5.36,0-10.92-3.09-10.92-9.07v-.82c0-.82,.21-1.65,.21-2.27,0-5.97-9.48-12.98-24.52-12.98-13.6,0-21.84,8.45-21.84,17.93,0,6.8,4.12,13.8,13.39,18.75,8.65,4.53,22.67,10.92,32.35,16.07,20.61,11.13,29.26,26.99,29.26,42.03,0,23.49-21.22,44.71-51.72,44.71Z"/><path class="cls-1" d="M1485.4,137.02c-4.33,12.78-11.75,20.19-28.64,20.19h-2.06c-8.45-.21-17.52-.41-26.58-.41-11.75,0-23.28,.21-32.76,.82h-.82c-7.83,0-12.98-5.77-12.98-12.16,0-5.77,3.09-8.86,7.21-11.33,2.47-1.65,5.36-3.71,7.83-6.39,61.2-64.7,62.44-74.18,62.44-85.1,0-13.6-10.3-22.25-22.05-22.25-8.65,0-18.13,4.74-24.52,15.87-2.47,4.33-6.39,5.97-10.09,5.97-5.98,0-11.75-4.33-11.75-10.51,0-8.65,16.69-31.73,46.16-31.73,23.49,0,46.16,15.25,46.16,40.39,0,11.54-4.53,24.73-15.66,39.77-14.83,19.99-33.79,36.47-50.69,54.6-.41,.41-.62,.82-.62,1.24s.41,.82,1.65,.82c7.21-.41,23.49,0,33.17-.82,11.74-1.03,12.98-6.59,16.07-16.07,2.06-6.59,6.8-9.27,11.54-9.27,5.77,0,11.54,4.33,11.54,11.13,0,1.24-.21,2.68-.82,4.33l-3.71,10.92Z"/><path class="cls-1" d="M1499.89,106.53c-.82-8.86-1.24-17.51-1.24-26.17,0-8.04,.41-16.07,1.03-24.52,2.88-35.85,22.46-55.63,50.48-55.63s46.98,18.75,50.28,53.16c.82,9.07,1.44,18.13,1.44,26.99,0,19.99-.62,79.54-51.72,79.54-27.4,0-46.98-18.75-50.28-53.37Zm77.06,.82c1.24-9.07,1.85-19.16,1.85-29.26,0-7.63-.41-15.25-1.03-22.25-2.06-21.64-12.78-34.62-27.61-34.62s-25.76,13.19-27.82,35.44c-.62,7.01-1.03,14.22-1.03,21.22,0,9.07,.62,18.34,1.65,27.2,2.47,21.02,13.6,33.59,27.2,33.59s23.9-11.75,26.79-31.32Z"/><path class="cls-1" d="M1713.78,137.02c-4.33,12.78-11.75,20.19-28.64,20.19h-2.06c-8.45-.21-17.51-.41-26.58-.41-11.75,0-23.28,.21-32.76,.82h-.82c-7.83,0-12.98-5.77-12.98-12.16,0-5.77,3.09-8.86,7.21-11.33,2.47-1.65,5.36-3.71,7.83-6.39,61.2-64.7,62.44-74.18,62.44-85.1,0-13.6-10.3-22.25-22.05-22.25-8.65,0-18.13,4.74-24.52,15.87-2.47,4.33-6.39,5.97-10.09,5.97-5.98,0-11.75-4.33-11.75-10.51,0-8.65,16.69-31.73,46.16-31.73,23.49,0,46.16,15.25,46.16,40.39,0,11.54-4.53,24.73-15.66,39.77-14.83,19.99-33.79,36.47-50.69,54.6-.41,.41-.62,.82-.62,1.24s.41,.82,1.65,.82c7.21-.41,23.49,0,33.17-.82,11.74-1.03,12.98-6.59,16.07-16.07,2.06-6.59,6.8-9.27,11.54-9.27,5.77,0,11.54,4.33,11.54,11.13,0,1.24-.21,2.68-.82,4.33l-3.71,10.92Z"/><path class="cls-1" d="M1829.33,137.02c-4.33,12.78-11.75,20.19-28.64,20.19h-2.06c-8.45-.21-17.51-.41-26.58-.41-11.75,0-23.28,.21-32.76,.82h-.82c-7.83,0-12.98-5.77-12.98-12.16,0-5.77,3.09-8.86,7.21-11.33,2.47-1.65,5.36-3.71,7.83-6.39,61.2-64.7,62.44-74.18,62.44-85.1,0-13.6-10.3-22.25-22.05-22.25-8.65,0-18.13,4.74-24.52,15.87-2.47,4.33-6.39,5.97-10.09,5.97-5.98,0-11.75-4.33-11.75-10.51,0-8.65,16.69-31.73,46.16-31.73,23.49,0,46.16,15.25,46.16,40.39,0,11.54-4.53,24.73-15.66,39.77-14.83,19.99-33.79,36.47-50.69,54.6-.41,.41-.62,.82-.62,1.24s.41,.82,1.65,.82c7.21-.41,23.49,0,33.17-.82,11.74-1.03,12.98-6.59,16.07-16.07,2.06-6.59,6.8-9.27,11.54-9.27,5.77,0,11.54,4.33,11.54,11.13,0,1.24-.21,2.68-.82,4.33l-3.71,10.92Z"/><path class="cls-1" d="M2006.82,119.51c-4.12,10.71-7.21,18.96-9.27,24.52-3.71,9.48-10.71,14.01-17.93,14.01-7.62,0-15.45-4.94-19.58-14.42-10.09-23.08-35.65-88.19-45.33-116.63-1.03-2.88-3.3-4.94-5.77-4.94-7.83,0-10.92-4.53-10.92-9.89s3.3-10.1,9.89-10.1h.62c4.74,.21,9.48,.41,14.01,.41,5.56,0,11.12-.21,17.51-.41h.41c7.21,0,10.71,5.15,10.71,10.1s-3.3,9.89-9.68,9.89c-2.27,.41-3.09,1.44-3.09,3.09,0,1.24,2.06,10.51,36.68,102,1.24,3.3,2.27,5.15,3.5,5.15,2.06,0,5.36-5.56,18.13-38.12-9.89-25.55-20.4-52.54-25.96-67.59-1.44-3.71-2.68-4.74-4.74-4.94-4.95-.21-7.42-4.95-7.42-9.69s2.68-9.89,8.03-9.89h.21c3.91,0,9.06,.21,15.45,.21,3.3,0,6.8,0,10.71-.21h.41c5.36,0,8.03,5.15,8.03,10.1,0,4.33-2.06,8.65-6.18,9.48-1.65,.21-2.27,1.24-2.27,2.27,0,3.5,9.48,31.94,13.81,44.09,8.45-23.49,13.81-43.06,13.81-44.09,0-1.44-.82-2.27-2.47-2.27-6.18,0-9.07-4.74-9.07-9.69s3.09-9.89,8.86-9.89h.62c4.74,.21,8.45,.41,12.16,.41,4.53,0,8.86-.21,15.25-.41h.41c5.97,0,8.65,4.74,8.65,9.69s-2.68,9.48-7.42,9.89c-2.06,.21-3.3,.82-4.33,3.3-7.62,19.78-17.52,45.95-26.58,69.23,13.81,35.85,16.28,37.71,17.52,37.71,1.03,0,2.06-1.65,3.09-4.33,36.68-98.49,37.09-100.55,37.09-101.79,0-2.27-2.06-3.71-3.71-3.71-5.98-.21-8.86-4.53-8.86-9.89s2.68-10.1,8.24-10.1h.41c4.74,.21,10.09,.41,15.25,.41,6.39,0,12.98-.21,19.37-.41h.41c5.36,0,8.24,4.95,8.24,9.89s-2.89,10.1-8.66,10.1c-2.27,0-4.53,.62-5.56,3.3-14.42,37.71-37.91,95.4-46.16,118.69-3.5,9.68-10.71,14.22-18.13,14.22-7.83,0-15.66-4.95-19.37-14.63l-9.07-24.11Z"/><path class="cls-1" d="M2132.19,135.17h.82c2.88,0,3.91-1.03,3.91-4.33,.41-20.19,.62-41.42,.62-62.23,0-13.6,0-27.2-.41-39.97,0-2.88-.82-4.74-3.91-4.74h-.41l-3.09,.21c-9.89,.41-12.37-7.62-12.37-10.92,0-5.56,3.92-10.92,11.33-10.92h1.03c4.33,.21,10.51,.41,16.69,.41,7.62,0,15.66-.21,21.22-.41h.41c8.24,0,12.16,5.36,12.16,10.92s-3.91,10.92-11.74,10.92h-3.71c-3.3,0-4.33,1.65-4.33,4.53-.21,13.19-.41,26.99-.41,41.21,0,19.78,.21,40.39,.62,60.79,0,2.06,.62,4.53,3.3,4.53,1.03,0,2.68-.21,3.5-.21h.41c8.24,0,12.16,5.56,12.16,11.13s-3.91,10.72-11.75,10.72h-.82c-5.36-.21-11.54-.41-17.72-.41-7.62,0-14.84,.21-19.99,.41h-.82c-7.62,0-11.54-5.36-11.54-10.92s3.92-10.92,11.54-10.92h.82l2.47,.21Z"/><path class="cls-1" d="M2293.5,148.36c-14.42-23.08-53.16-93.96-64.29-112.71-1.65-2.88-2.88-4.12-3.71-4.12-1.65,0-1.65,4.74-1.65,10.71,0,16.28,.41,60.99,1.03,88.4,0,3.71,2.06,5.15,4.94,5.15h.41c8.24,0,12.16,5.36,12.16,10.72s-4.12,10.72-11.75,10.72h-.82c-5.36-.21-10.71-.41-16.07-.41-6.38,0-12.57,.21-17.51,.41-10.1,.41-12.36-8.04-12.36-10.72,0-5.36,3.91-10.72,11.33-10.72h1.03c.62,0,1.44,.21,2.06,.21,2.27,0,4.12-.82,4.12-4.74,.21-17.1,.41-35.24,.41-52.96s-.21-34.41-.41-49.04c0-4.33-.21-5.36-3.91-5.36-3.91,0-13.6-.41-13.6-10.92,0-5.56,3.91-10.92,11.33-10.92h1.03c2.68,.21,4.94,.21,6.8,.21,3.91,0,6.39-.21,9.27-.21,17.1,0,26.17,10.51,30.29,17.51,15.25,25.76,44.51,80.36,58.73,101.58,1.24,1.85,2.47,3.09,3.5,3.09,1.65,0,1.65-2.06,1.65-9.48,0-15.66-.41-59.34-1.03-85.1-.21-4.95-1.24-5.77-5.15-5.77h-1.85c-10.09,.41-12.36-8.04-12.36-10.72,0-5.36,3.91-10.72,11.33-10.72h1.03c4.33,.21,9.48,.41,14.84,.41,6.59,0,13.39-.21,18.96-.41s12.36,2.06,12.36,10.51c0,5.56-4.12,10.92-11.95,10.92h-.62c-3.71,.62-3.91,2.47-3.91,4.53-.21,12.36-.41,26.58-.41,41.21,0,25.14,.41,50.89,.62,69.03v.41c0,12.16-9.06,19.37-18.55,19.37-6.38,0-12.98-3.3-17.31-10.1Z"/><path class="cls-1" d="M2395.32,22.46c-17.72,0-18.54,.21-21.22,9.27-.62,1.85-1.03,4.12-1.85,6.59-1.65,5.77-6.39,8.45-10.92,8.45-5.56,0-11.13-3.91-11.13-10.72,0-1.65,.41-3.5,1.03-5.36,6.59-19.78,10.09-28.85,31.94-28.85h3.91c6.38,.21,16.9,.41,28.23,.41,13.8,0,28.64-.21,38.12-.41h2.06c16.28,0,24.93,4.74,29.26,16.69,1.24,3.3,3.5,8.04,4.95,12.36,.62,1.65,.82,3.3,.82,4.74,0,7.01-5.77,10.92-11.33,10.92-4.53,0-9.27-2.47-10.92-8.24-.62-2.27-1.24-4.33-1.85-6.18-3.09-9.48-5.15-9.69-16.07-9.69-16.9,0-17.1,0-17.1,4.53-.41,15.25-.62,37.3-.62,59.14,0,15.86,.21,31.53,.41,44.51,0,4.53,2.06,4.74,5.77,4.74,8.03,0,11.95,5.56,11.95,11.13s-3.91,10.92-11.33,10.92h-.82c-5.15-.21-10.92-.41-16.69-.41-6.8,0-13.4,.21-18.14,.41-6.8,.41-11.95-4.33-11.95-10.92,0-5.56,3.71-11.13,11.12-11.13h.82c3.71-.21,5.77,0,5.77-4.53,0-16.69,.41-41.83,.41-67.17,0-12.57,0-25.14-.41-36.68q0-4.53-14.22-4.53Z"/><path class="cls-1" d="M2551.75,136.61c32.97,0,34.2-.82,37.91-13.39,1.65-5.56,5.97-8.04,10.3-8.04,5.56,0,11.33,4.12,11.33,10.92,0,2.47-2.47,9.48-4.12,13.39-4.12,10.72-11.75,17.72-33.59,17.72-11.13,0-26.58-.21-41.01-.21-9.89,0-19.16,0-26.79,.41-4.53,.21-12.36-2.27-12.36-10.72,0-5.36,3.91-10.71,11.33-10.71h2.06c3.5,0,4.53-1.03,4.74-4.12,1.03-13.6,1.24-52.34,1.24-82.22V27.82c0-3.09-.82-4.74-5.36-4.74s-13.19-1.03-13.19-10.51c0-5.15,3.91-10.51,11.54-10.51h.82c5.56,.21,12.57,.41,20.19,.41,15.25,0,32.76-.41,43.69-.41,25.34,0,28.43,9.27,32.76,24.73,.41,1.65,.82,3.09,.82,4.53,0,7.01-5.77,10.72-11.33,10.72-4.94,0-9.89-2.88-10.92-9.07-1.44-7.42-3.91-10.3-14.22-10.3-8.66,0-24.52-.21-27.2-.21-4.12,0-5.36,.82-5.56,5.36-.21,9.27-.41,23.7-.62,37.5,0,2.06,1.03,2.68,2.88,2.68,6.59,0,17.1,0,20.61-.21,3.5-.21,4.12-3.09,4.12-6.59-.21-8.45,6.59-11.33,10.72-11.33,5.15,0,10.1,3.5,10.1,10.51v.82c-.21,4.74-.41,10.3-.41,15.66,0,6.39,.21,12.78,.41,17.31v.82c0,6.8-5.36,10.1-10.51,10.1s-10.3-3.5-10.3-10.1v-.82c0-.82,.21-1.85,.21-2.68,0-2.27-.62-4.33-4.33-4.33-3.91,0-14.22-.21-20.61-.21-2.47,0-3.09,1.03-3.09,3.3,0,18.75,0,35.85,.41,40.59,.21,5.36,1.44,5.77,17.31,5.77Z"/><path class="cls-1" d="M2723.2,157.01c-5.36,0-10.51,0-15.04,.21h-.82c-7.21,0-10.71-4.74-10.71-9.48,0-4.12,2.68-8.45,7.83-9.68,1.44-.41,3.71-1.24,3.71-2.88,0-.41-.21-.82-.41-1.24-20.19-34.41-30.08-49.86-37.92-49.86-2.27-.21-4.12-.21-5.97-.21-6.39,0-10.3,.21-10.3,4.53,0,10.72,.41,30.29,.62,43.89,0,3.09,2.27,4.33,6.59,4.53,8.03,.21,11.54,5.15,11.54,10.1s-4.12,10.51-10.92,10.51h-.82c-4.94-.21-10.3-.41-15.45-.41-8.03,0-15.04,.21-17.1,.41-8.65,.41-12.16-5.36-12.16-10.1,0-5.15,3.91-10.3,11.75-10.3h.82c3.3,0,3.92-2.47,4.12-4.95,.41-8.86,.62-30.08,.62-51.51s-.21-43.07-.41-52.34c0-3.3-.82-4.95-3.91-4.95-11.95,0-12.78-8.45-12.78-10.71,0-5.36,3.71-10.51,11.13-10.51h1.03c4.53,.21,8.86,.41,13.19,.41,9.68,0,18.96-.41,28.64-.41,4.94,0,9.89,0,14.83,.41,36.06,2.68,46.36,23.49,46.36,39.56,0,16.9-11.33,33.79-29.47,37.3-1.65,.21-3.09,.62-3.09,1.65,0,.41,.21,1.03,.82,1.65,6.39,7.62,11.54,15.25,16.28,22.87,18.34,29.46,18.55,29.67,25.76,30.29,7.42,.62,10.72,5.36,10.72,10.3,0,5.98-4.74,11.13-12.36,11.13-5.77-.21-11.33-.21-16.69-.21Zm-14.42-114.56c0-10.1-7.83-19.78-25.96-20.81-2.68-.21-7.62-.21-12.57-.21-3.5,0-7.01,0-9.48,.21-6.39,.62-6.8,1.03-6.8,15.86v24.52c0,4.74,3.71,4.74,16.69,4.74,4.74,0,9.89-.21,13.6-.41,15.25-1.44,24.52-12.98,24.52-23.9Z"/></g></g></svg>